<?xml version="1.0" encoding="utf-8"?>
<!-- Generator: Adobe Illustrator 19.1.0, SVG Export Plug-In . SVG Version: 6.00 Build 0)  -->
<svg version="1.1" id="Layer_1" xmlns="http://www.w3.org/2000/svg" xmlns:xlink="http://www.w3.org/1999/xlink" x="0px" y="0px"
	 viewBox="0 0 265.4 94.9" style="enable-background:new 0 0 265.4 94.9;" xml:space="preserve">
<style type="text/css">
	.st0{fill:#FFFFFF;}
</style>
<g>
	<path class="st0" d="M42.1,30.7L42.1,30.7L42.1,30.7h-0.3L38.3,40h0.8l1.1-2.8H44l1.1,2.8h0.8l-3.5-9.4H42.1z M40.4,36.5l1.7-4.5
		l1.7,4.5H40.4z"/>
	<polygon class="st0" points="62.6,38.5 57.5,30.7 57.2,30.7 57.1,30.5 57.1,30.7 56.9,30.7 56.9,40 57.6,40 57.6,32.2 62.7,40 
		63,40 63.1,40.2 63.1,40 63.3,40 63.3,30.7 62.6,30.7 	"/>
	<path class="st0" d="M78.1,30.7L78.1,30.7L78.1,30.7h-0.3L74.3,40h0.8l1.1-2.8h3.9l1.1,2.8h0.8l-3.5-9.4H78.1z M76.4,36.5l1.7-4.5
		l1.7,4.5H76.4z"/>
	<path class="st0" d="M100.4,31.1c1.5,0,2.4,0.7,2.8,1.9l0.1,0.3L104,33l-0.1-0.2c-0.5-1.5-1.8-2.4-3.5-2.4c-2.9,0-4,2.6-4,4.8
		c0,3.1,1.6,4.8,4.5,4.8c0.6,0,2-0.1,2.9-0.5l0.1-0.1v-4.1h-3.6v0.7h2.9V39c-0.8,0.3-1.8,0.3-2.3,0.3c-2.5,0-3.8-1.4-3.8-4.1
		C97.2,33.3,98,31.1,100.4,31.1"/>
	<polygon class="st0" points="115.8,40 121.7,40 121.7,39.3 116.6,39.3 116.6,35.7 121.1,35.7 121.1,35 116.6,35 116.6,31.4 
		121.7,31.4 121.7,30.7 115.8,30.7 	"/>
	<path class="st0" d="M137,30.4c-2.5,0-4.2,1.9-4.2,4.8c0,2.9,1.6,4.8,4.2,4.8c2.5,0,4.2-1.9,4.2-4.8
		C141.1,32.3,139.5,30.4,137,30.4 M137,31.1c2.5,0,3.4,2.1,3.4,4.1c0,2-0.9,4.1-3.4,4.1c-2.5,0-3.4-2.1-3.4-4.1
		C133.5,33.3,134.4,31.1,137,31.1"/>
	<path class="st0" d="M158.9,33.2c0-1.7-1.5-2.5-2.9-2.5h-3.4V40h0.7v-4.3h2.6l2.5,4.3h0.9l-2.6-4.4
		C157.9,35.4,158.9,34.6,158.9,33.2 M153.4,35v-3.6h2.7c1,0,2.1,0.6,2.1,1.8c0,1.2-1.1,1.8-2.1,1.8H153.4z"/>
	<path class="st0" d="M174,31.1c1.5,0,2.4,0.7,2.8,1.9l0.1,0.3l0.7-0.3l-0.1-0.2c-0.5-1.5-1.8-2.4-3.5-2.4c-2.9,0-4,2.6-4,4.8
		c0,3.1,1.6,4.8,4.5,4.8c0.6,0,2-0.1,2.9-0.5l0.1-0.1v-4.1H174v0.7h2.9V39c-0.8,0.3-1.8,0.3-2.3,0.3c-2.5,0-3.8-1.4-3.8-4.1
		C170.8,33.3,171.6,31.1,174,31.1"/>
	<rect x="189.4" y="30.7" class="st0" width="0.7" height="9.4"/>
	<polygon class="st0" points="207.8,38.5 202.8,30.7 202.5,30.7 202.4,30.5 202.4,30.7 202.1,30.7 202.1,40 202.9,40 202.9,32.2 
		207.9,40 208.2,40 208.3,40.2 208.3,40 208.6,40 208.6,30.7 207.8,30.7 	"/>
	<path class="st0" d="M223.7,30.7h-0.3h0h0h-0.3l-3.5,9.4h0.8l1.1-2.8h3.9l1.1,2.8h0.8L223.7,30.7z M221.7,36.5l1.7-4.5l1.7,4.5
		H221.7z"/>
	<path class="st0" d="M40.5,59.4c1.1,0,1.5,0.7,1.5,1.3c0,0.7-0.5,1.4-1.4,1.4h-1.1v2h0.9c0.1,0,0.2,0.1,0.2,0.2
		c0,0.1-0.1,0.2-0.2,0.2h-2c-0.1,0-0.2-0.1-0.2-0.2c0-0.1,0.1-0.2,0.2-0.2h0.7v-4.3h-0.7c-0.1,0-0.2-0.1-0.2-0.2s0.1-0.2,0.2-0.2
		H40.5z M40.5,59.7h-1v2h1.1c0.7,0,1-0.5,1-1C41.6,60.2,41.3,59.7,40.5,59.7"/>
	<path class="st0" d="M60,61.9h-2.7V64H58c0.1,0,0.2,0.1,0.2,0.2c0,0.1-0.1,0.2-0.2,0.2h-1.8c-0.1,0-0.2-0.1-0.2-0.2
		c0-0.1,0.1-0.2,0.2-0.2h0.7v-4.3h-0.7c-0.1,0-0.2-0.1-0.2-0.2c0-0.1,0.1-0.2,0.2-0.2H58c0.1,0,0.2,0.1,0.2,0.2
		c0,0.1-0.1,0.2-0.2,0.2h-0.7v1.9H60v-1.9h-0.7c-0.1,0-0.2-0.1-0.2-0.2c0-0.1,0.1-0.2,0.2-0.2h1.8c0.1,0,0.2,0.1,0.2,0.2
		c0,0.1-0.1,0.2-0.2,0.2h-0.7V64h0.7c0.1,0,0.2,0.1,0.2,0.2c0,0.1-0.1,0.2-0.2,0.2h-1.8c-0.1,0-0.2-0.1-0.2-0.2
		c0-0.1,0.1-0.2,0.2-0.2H60V61.9z"/>
	<path class="st0" d="M79.3,61.9c0,1.4-0.8,2.6-1.9,2.6c-1.1,0-1.9-1.1-1.9-2.6c0-1.4,0.8-2.6,1.9-2.6
		C78.5,59.3,79.3,60.5,79.3,61.9 M78.9,61.9c0-1.2-0.6-2.2-1.5-2.2c-0.9,0-1.5,1-1.5,2.2c0,1.2,0.6,2.2,1.5,2.2
		C78.3,64.1,78.9,63.1,78.9,61.9"/>
	<path class="st0" d="M97.3,59.4c0.1,0,0.2,0.1,0.2,0.2c0,0,0.1,1.1,0.1,1.1c0,0.1-0.1,0.2-0.2,0.2c-0.1,0-0.2-0.1-0.2-0.2l-0.1-0.9
		h-1.4V64h1c0.1,0,0.2,0.1,0.2,0.2c0,0.1-0.1,0.2-0.2,0.2h-2.4c-0.1,0-0.2-0.1-0.2-0.2c0-0.1,0.1-0.2,0.2-0.2h1v-4.3H94l-0.1,0.9
		c0,0.1-0.1,0.2-0.2,0.2c-0.1,0-0.2-0.1-0.2-0.2c0,0,0.1-1.1,0.1-1.1c0-0.1,0.1-0.2,0.2-0.2H97.3z"/>
	<path class="st0" d="M115.6,61.9c0,1.4-0.8,2.6-1.9,2.6c-1.1,0-1.9-1.1-1.9-2.6c0-1.4,0.8-2.6,1.9-2.6
		C114.8,59.3,115.6,60.5,115.6,61.9 M115.2,61.9c0-1.2-0.6-2.2-1.5-2.2c-0.9,0-1.5,1-1.5,2.2c0,1.2,0.6,2.2,1.5,2.2
		C114.6,64.1,115.2,63.1,115.2,61.9"/>
	<path class="st0" d="M130.4,61.9c0,1.3,0.6,2.2,1.5,2.2c0.7,0,1.1-0.5,1.2-0.8v-0.6h-1.1c-0.1,0-0.2-0.1-0.2-0.2
		c0-0.1,0.1-0.2,0.2-0.2h2c0.1,0,0.2,0.1,0.2,0.2c0,0.1-0.1,0.2-0.2,0.2h-0.5v1.5c0,0.1-0.1,0.2-0.2,0.2c-0.1,0-0.2-0.1-0.2-0.2
		v-0.4c-0.3,0.4-0.7,0.6-1.3,0.6c-1.1,0-1.8-1-1.8-2.5c0-1.5,0.8-2.6,1.9-2.6c0.4,0,0.9,0.1,1.2,0.6c0,0-0.1-0.4-0.1-0.4
		c0-0.1,0.1-0.2,0.2-0.2c0.1,0,0.2,0.1,0.2,0.2c0,0.2,0.2,1.6,0.2,1.6c0,0.1-0.1,0.2-0.2,0.2c-0.1,0-0.1,0-0.2-0.1
		c-0.2-0.8-0.5-1.5-1.3-1.5C131,59.6,130.4,60.6,130.4,61.9"/>
	<path class="st0" d="M151.3,63.1c-0.2-0.6-0.6-0.9-0.8-1h-1.1v2h0.9c0.1,0,0.2,0.1,0.2,0.2c0,0.1-0.1,0.2-0.2,0.2h-2
		c-0.1,0-0.2-0.1-0.2-0.2c0-0.1,0.1-0.2,0.2-0.2h0.7v-4.3h-0.7c-0.1,0-0.2-0.1-0.2-0.2s0.1-0.2,0.2-0.2h2.2c1.1,0,1.5,0.7,1.5,1.3
		c0,0.5-0.3,1.1-1,1.3c0.2,0.2,0.5,0.4,0.8,1.1l0.5,1h0.7c0.1,0,0.2,0.1,0.2,0.2c0,0.1-0.1,0.2-0.2,0.2h-0.9c-0.1,0-0.2-0.1-0.2-0.1
		L151.3,63.1z M150.3,59.7h-1.1v2h1c0.7,0,1.1-0.5,1.1-1.1C151.4,60.2,151.2,59.7,150.3,59.7"/>
	<path class="st0" d="M169.8,62.4H168l-0.5,1.6h0.7c0.1,0,0.2,0.1,0.2,0.2c0,0.1-0.1,0.2-0.2,0.2h-1.7c-0.1,0-0.2-0.1-0.2-0.2
		c0-0.1,0.1-0.2,0.2-0.2h0.6l1.6-4.7c0-0.1,0.1-0.2,0.2-0.2c0.1,0,0.2,0.1,0.2,0.2l1.6,4.7h0.6c0.1,0,0.2,0.1,0.2,0.2
		c0,0.1-0.1,0.2-0.2,0.2h-1.7c-0.1,0-0.2-0.1-0.2-0.2c0-0.1,0.1-0.2,0.2-0.2h0.7L169.8,62.4z M168.2,62.1h1.5l-0.7-2.3L168.2,62.1z"
		/>
	<path class="st0" d="M187.5,59.4c1.1,0,1.5,0.7,1.5,1.3c0,0.7-0.4,1.4-1.4,1.4h-1.1v2h0.9c0.1,0,0.2,0.1,0.2,0.2
		c0,0.1-0.1,0.2-0.2,0.2h-2c-0.1,0-0.2-0.1-0.2-0.2c0-0.1,0.1-0.2,0.2-0.2h0.7v-4.3h-0.7c-0.1,0-0.2-0.1-0.2-0.2s0.1-0.2,0.2-0.2
		H187.5z M187.5,59.7h-1v2h1.1c0.7,0,1-0.5,1-1C188.6,60.2,188.3,59.7,187.5,59.7"/>
	<path class="st0" d="M207,61.9h-2.7V64h0.7c0.1,0,0.2,0.1,0.2,0.2c0,0.1-0.1,0.2-0.2,0.2h-1.8c-0.1,0-0.2-0.1-0.2-0.2
		c0-0.1,0.1-0.2,0.2-0.2h0.7v-4.3h-0.7c-0.1,0-0.2-0.1-0.2-0.2c0-0.1,0.1-0.2,0.2-0.2h1.8c0.1,0,0.2,0.1,0.2,0.2
		c0,0.1-0.1,0.2-0.2,0.2h-0.7v1.9h2.7v-1.9h-0.7c-0.1,0-0.2-0.1-0.2-0.2c0-0.1,0.1-0.2,0.2-0.2h1.8c0.1,0,0.2,0.1,0.2,0.2
		c0,0.1-0.1,0.2-0.2,0.2h-0.7V64h0.7c0.1,0,0.2,0.1,0.2,0.2c0,0.1-0.1,0.2-0.2,0.2h-1.8c-0.1,0-0.2-0.1-0.2-0.2
		c0-0.1,0.1-0.2,0.2-0.2h0.7V61.9z"/>
	<path class="st0" d="M224.6,62.3l1.4-2.5h-0.6c-0.1,0-0.2-0.1-0.2-0.2c0-0.1,0.1-0.2,0.2-0.2h1.6c0.1,0,0.2,0.1,0.2,0.2
		c0,0.1-0.1,0.2-0.2,0.2h-0.6l-1.6,2.9V64h0.8c0.1,0,0.2,0.1,0.2,0.2c0,0.1-0.1,0.2-0.2,0.2h-1.9c-0.1,0-0.2-0.1-0.2-0.2
		c0-0.1,0.1-0.2,0.2-0.2h0.8v-1.4l-1.6-2.8h-0.6c-0.1,0-0.2-0.1-0.2-0.2c0-0.1,0.1-0.2,0.2-0.2h1.6c0.1,0,0.2,0.1,0.2,0.2
		c0,0.1-0.1,0.2-0.2,0.2h-0.6L224.6,62.3z"/>
	<path class="st0" d="M260.7,91.2H4.7c-0.7,0-1.3-0.6-1.3-1.3v-85c0-0.7,0.6-1.3,1.3-1.3h256c0.7,0,1.3,0.6,1.3,1.3v85
		C262,90.6,261.4,91.2,260.7,91.2 M6,88.7h253.4V6.2H6V88.7z"/>
</g>
</svg>
