<?xml version="1.0" encoding="utf-8"?>
<!-- Generator: Adobe Illustrator 19.1.0, SVG Export Plug-In . SVG Version: 6.00 Build 0)  -->
<svg version="1.1" id="Layer_1" xmlns="http://www.w3.org/2000/svg" xmlns:xlink="http://www.w3.org/1999/xlink" x="0px" y="0px"
	 viewBox="-184 167 332 67" style="enable-background:new -184 167 332 67;" xml:space="preserve">
<style type="text/css">
	.st0{fill:#414242;}
	.st1{fill:#B3B1B3;}
	.st2{fill:none;}
</style>
<g>
	<g>
		<path class="st0" d="M-173.5,171.8L-173.5,171.8L-173.5,171.8h-0.6l-6,16.1h1.3l1.8-4.9h6.7l1.8,4.9h1.3l-6-16.1
			C-173.1,171.8-173.5,171.8-173.5,171.8z M-176.4,181.9l2.8-7.8l2.8,7.8H-176.4z"/>
		<polygon class="st0" points="-138.4,185.4 -147.1,171.8 -147.5,171.8 -147.6,171.7 -147.6,171.8 -148.1,171.8 -148.1,188 
			-146.9,188 -146.9,174.5 -138.2,188 -137.6,188 -137.5,188.3 -137.5,188 -137.1,188 -137.1,171.8 -138.4,171.8 		"/>
		<path class="st0" d="M-111.7,171.8L-111.7,171.8L-111.7,171.8h-0.6l-6,16.1h1.3l1.8-4.9h6.7l1.8,4.9h1.3l-6-16.1
			C-111.2,171.8-111.7,171.8-111.7,171.8z M-114.7,181.9l2.8-7.8l2.8,7.8H-114.7z"/>
		<path class="st0" d="M-73.4,172.7c2.5,0,4.2,1.2,4.9,3.3l0.1,0.4l1.2-0.4l-0.1-0.3c-0.9-2.7-3.1-4.2-6.1-4.2
			c-5.1,0-6.9,4.5-6.9,8.2c0,5.4,2.7,8.2,7.8,8.2c0.9,0,3.4-0.1,5.1-0.9l0.3-0.1v-7h-6.4v1.2h4.9v4.9c-1.3,0.4-3.1,0.6-4,0.6
			c-4.3,0-6.4-2.4-6.4-7C-79,176.3-77.6,172.7-73.4,172.7z"/>
		<polygon class="st0" points="-47,188 -37,188 -37,186.8 -45.8,186.8 -45.8,180.7 -38,180.7 -38,179.3 -45.8,179.3 -45.8,173.2 
			-37,173.2 -37,171.8 -47,171.8 		"/>
		<path class="st0" d="M-10.8,171.4c-4.3,0-7.2,3.3-7.2,8.2c0,5.1,2.8,8.2,7.2,8.2s7.2-3.3,7.2-8.2C-3.7,174.7-6.5,171.4-10.8,171.4
			z M-10.8,172.7c4.3,0,5.8,3.6,5.8,7s-1.5,7-5.8,7s-5.8-3.6-5.8-7S-15.2,172.7-10.8,172.7z"/>
		<path class="st0" d="M26.8,176.2c0-2.8-2.5-4.3-4.9-4.3h-5.8V188h1.2v-7.5h4.5l4.3,7.5h1.5l-4.3-7.6
			C25.2,180.1,26.8,178.6,26.8,176.2z M17.4,179.3v-6.1H22c1.8,0,3.7,0.9,3.7,3s-1.9,3.1-3.7,3.1H17.4z"/>
		<path class="st0" d="M52.8,172.7c2.5,0,4.2,1.2,4.9,3.3l0.1,0.4L59,176l-0.1-0.3c-0.9-2.7-3.1-4.2-6.1-4.2c-5.1,0-6.9,4.5-6.9,8.2
			c0,5.4,2.7,8.2,7.8,8.2c0.9,0,3.4-0.1,5.1-0.9l0.3-0.1v-7h-6.3v1.2h4.9v4.9c-1.3,0.4-3.1,0.6-4,0.6c-4.3,0-6.4-2.4-6.4-7
			C47.3,176.3,48.8,172.7,52.8,172.7z"/>
		<rect x="79.3" y="171.8" class="st0" width="1.3" height="16.1"/>
		<polygon class="st0" points="110.8,185.4 102.1,171.8 101.7,171.8 101.5,171.7 101.5,171.8 101.1,171.8 101.1,188 102.3,188 
			102.3,174.5 110.9,188 111.4,188 111.5,188.3 111.5,188 112,188 112,171.8 110.8,171.8 		"/>
		<path class="st0" d="M138,171.8h-0.4l0,0l0,0h-0.4l-6,16.1h1.3l1.8-4.9h6.7l1.8,4.9h1.3L138,171.8z M134.5,181.9l2.8-7.8l2.8,7.8
			H134.5z"/>
	</g>
	<g>
		<path class="st1" d="M-176.1,221.2c1.9,0,2.5,1.2,2.5,2.2c0,1.2-0.7,2.4-2.4,2.4h-1.8v3.3h1.6c0.1,0,0.3,0.1,0.3,0.3
			c0,0.1-0.1,0.3-0.3,0.3h-3.6c-0.1,0-0.3-0.1-0.3-0.3s0.1-0.3,0.3-0.3h1.2v-7.3h-1.2c-0.1,0-0.3-0.1-0.3-0.3c0-0.1,0.1-0.3,0.3-0.3
			C-179.8,221.2-176.1,221.2-176.1,221.2z M-176.1,221.7h-1.6v3.4h1.8c1.2,0,1.8-0.9,1.8-1.8C-174.2,222.6-174.9,221.7-176.1,221.7z
			"/>
		<path class="st1" d="M-142.6,225.6h-4.6v3.6h1.2c0.1,0,0.3,0.1,0.3,0.3s-0.1,0.3-0.3,0.3h-3.1c-0.1,0-0.3-0.1-0.3-0.3
			c0-0.1,0.1-0.3,0.3-0.3h1.2v-7.3h-1.2c-0.1,0-0.3-0.1-0.3-0.3c0-0.1,0.1-0.3,0.3-0.3h3.1c0.1,0,0.3,0.1,0.3,0.3
			c0,0.1-0.1,0.3-0.3,0.3h-1.2v3.1h4.6v-3.1h-1.2c-0.1,0-0.3-0.1-0.3-0.3c0-0.1,0.1-0.3,0.3-0.3h3.1c0.1,0,0.3,0.1,0.3,0.3
			c0,0.1-0.1,0.3-0.3,0.3h-1.2v7.3h1.2c0.1,0,0.3,0.1,0.3,0.3s-0.1,0.3-0.3,0.3h-3.1c-0.1,0-0.3-0.1-0.3-0.3c0-0.1,0.1-0.3,0.3-0.3
			h1.2V225.6z"/>
		<path class="st1" d="M-109.7,225.5c0,2.4-1.3,4.5-3.3,4.5c-1.9,0-3.3-1.9-3.3-4.5c0-2.4,1.3-4.3,3.3-4.3
			C-111.1,221-109.7,222.9-109.7,225.5z M-110.5,225.5c0-2.1-1-3.9-2.5-3.9s-2.5,1.6-2.5,3.9c0,2.1,1,3.9,2.5,3.9
			C-111.5,229.2-110.5,227.6-110.5,225.5z"/>
		<path class="st1" d="M-78.8,221.2c0.1,0,0.3,0.1,0.3,0.3l0.1,1.8c0,0.1-0.1,0.3-0.3,0.3s-0.3-0.1-0.3-0.3l-0.1-1.6h-2.4v7.3h1.6
			c0.1,0,0.3,0.1,0.3,0.3s-0.1,0.3-0.3,0.3h-4c-0.1,0-0.3-0.1-0.3-0.3c0-0.1,0.1-0.3,0.3-0.3h1.6v-7.3h-2.4l-0.1,1.6
			c0,0.1-0.1,0.3-0.3,0.3s-0.3-0.1-0.3-0.3l0.1-1.8c0-0.1,0.1-0.3,0.3-0.3H-78.8z"/>
		<path class="st1" d="M-47.4,225.5c0,2.4-1.3,4.5-3.3,4.5c-1.9,0-3.3-1.9-3.3-4.5c0-2.4,1.3-4.3,3.3-4.3
			C-48.8,221-47.4,222.9-47.4,225.5z M-48.2,225.5c0-2.1-1-3.9-2.5-3.9s-2.5,1.6-2.5,3.9c0,2.1,1,3.9,2.5,3.9
			C-49.2,229.2-48.2,227.6-48.2,225.5z"/>
		<path class="st1" d="M-22,225.5c0,2.2,1,3.7,2.5,3.7c1.2,0,1.8-0.7,2.1-1.3v-1h-1.9c-0.1,0-0.3-0.1-0.3-0.3s0.1-0.3,0.3-0.3h3.4
			c0.1,0,0.3,0.1,0.3,0.3s-0.1,0.3-0.3,0.3h-0.9v2.7c0,0.1-0.1,0.3-0.3,0.3s-0.3-0.1-0.3-0.3V229c-0.4,0.6-1.2,1-2.2,1
			c-1.9,0-3.1-1.8-3.1-4.3c0-2.7,1.3-4.5,3.1-4.5c0.7,0,1.5,0.3,2.1,1c0,0-0.1-0.6-0.1-0.7s0.1-0.3,0.3-0.3s0.3,0.1,0.3,0.3
			c0,0.3,0.3,2.7,0.3,2.7c0,0.1-0.1,0.3-0.3,0.3s-0.3,0-0.3-0.3c-0.4-1.3-0.7-2.5-2.2-2.5C-21.1,221.6-22,223.2-22,225.5z"/>
		<path class="st1" d="M13.8,227.6c-0.4-0.9-1-1.5-1.5-1.8h-1.9v3.3h1.5c0.1,0,0.3,0.1,0.3,0.3c0,0.1-0.1,0.3-0.3,0.3H8.5
			c-0.1,0-0.3-0.1-0.3-0.3s0.1-0.3,0.3-0.3h1.2v-7.3H8.5c-0.1,0-0.3-0.1-0.3-0.3c0-0.1,0.1-0.3,0.3-0.3h3.7c1.9,0,2.5,1.2,2.5,2.2
			c0,0.9-0.6,1.8-1.6,2.2c0.4,0.3,0.7,0.6,1.3,1.8l0.7,1.8h1.2c0.1,0,0.3,0.1,0.3,0.3c0,0.1-0.1,0.3-0.3,0.3h-1.5
			c-0.1,0-0.3-0.1-0.3-0.3L13.8,227.6z M12.2,221.7h-1.8v3.4h1.8c1.2,0,1.9-0.9,1.9-1.8C14.1,222.6,13.5,221.7,12.2,221.7z"/>
		<path class="st1" d="M45.5,226.4h-3l-0.9,2.7h1.2c0.1,0,0.3,0.1,0.3,0.3c0,0.1-0.1,0.3-0.3,0.3H40c-0.1,0-0.3-0.1-0.3-0.3
			s0.1-0.3,0.3-0.3h0.9l2.7-8.1c0-0.1,0.1-0.3,0.3-0.3c0.1,0,0.3,0.1,0.3,0.3l2.7,8.1h0.9c0.1,0,0.3,0.1,0.3,0.3
			c0,0.1-0.1,0.3-0.3,0.3H45c-0.1,0-0.3-0.1-0.3-0.3s0.1-0.3,0.3-0.3h1.2L45.5,226.4z M42.8,225.8h2.5l-1.3-3.9L42.8,225.8z"/>
		<path class="st1" d="M76,221.2c1.9,0,2.5,1.2,2.5,2.2c0,1.2-0.7,2.4-2.4,2.4h-1.8v3.3h1.6c0.1,0,0.3,0.1,0.3,0.3
			c0,0.1-0.1,0.3-0.3,0.3h-3.4c-0.1,0-0.3-0.1-0.3-0.3s0.1-0.3,0.3-0.3h1.2v-7.3h-1.2c-0.1,0-0.3-0.1-0.3-0.3c0-0.1,0.1-0.3,0.3-0.3
			C72.5,221.2,76,221.2,76,221.2z M76,221.7h-1.6v3.4h1.8c1.2,0,1.8-0.9,1.8-1.8C77.8,222.6,77.3,221.7,76,221.7z"/>
		<path class="st1" d="M109.3,225.6h-4.6v3.6h1.2c0.1,0,0.3,0.1,0.3,0.3s-0.1,0.3-0.3,0.3h-3.1c-0.1,0-0.3-0.1-0.3-0.3
			c0-0.1,0.1-0.3,0.3-0.3h1.2v-7.3h-1.2c-0.1,0-0.3-0.1-0.3-0.3c0-0.1,0.1-0.3,0.3-0.3h3.1c0.1,0,0.3,0.1,0.3,0.3
			c0,0.1-0.1,0.3-0.3,0.3h-1.2v3.1h4.6v-3.1h-1.2c-0.1,0-0.3-0.1-0.3-0.3c0-0.1,0.1-0.3,0.3-0.3h3.1c0.1,0,0.3,0.1,0.3,0.3
			c0,0.1-0.1,0.3-0.3,0.3H110v7.3h1.2c0.1,0,0.3,0.1,0.3,0.3s-0.1,0.3-0.3,0.3h-3.1c-0.1,0-0.3-0.1-0.3-0.3c0-0.1,0.1-0.3,0.3-0.3
			h1.2C109.3,229.2,109.3,225.6,109.3,225.6z"/>
		<path class="st1" d="M139.6,226.1l2.4-4.3h-1c-0.1,0-0.3-0.1-0.3-0.3c0-0.1,0.1-0.3,0.3-0.3h2.7c0.1,0,0.3,0.1,0.3,0.3
			c0,0.1-0.1,0.3-0.3,0.3h-0.9l-2.8,4.9v2.4h1.3c0.1,0,0.3,0.1,0.3,0.3s-0.1,0.3-0.3,0.3H138c-0.1,0-0.3-0.1-0.3-0.3
			c0-0.1,0.1-0.3,0.3-0.3h1.3v-2.6l-2.7-4.9h-1c-0.1,0-0.3-0.1-0.3-0.3c0-0.1,0.1-0.3,0.3-0.3h2.7c0.1,0,0.3,0.1,0.3,0.3
			c0,0.1-0.1,0.3-0.3,0.3h-1L139.6,226.1z"/>
	</g>
</g>
<rect x="-60.3" y="163" class="st2" width="84.6" height="33.8"/>
</svg>
